HIERARCHY
ROOT SpineBase
{
  OFFSET 0.000000 0.000000 0.000000
  CHANNELS 6 Xposition Yposition Zposition Zrotation Xrotation Yrotation
  JOINT SpineMid
  {
    OFFSET 0.000000 32.209323 0.000000
    CHANNELS 3 Zrotation Xrotation Yrotation
    JOINT SpineShoulder
    {
      OFFSET 0.107364 23.847130 -0.750534
      CHANNELS 3 Zrotation Xrotation Yrotation
      JOINT Neck
      {
        OFFSET 0.067201 7.879418 -0.590084
        CHANNELS 3 Zrotation Xrotation Yrotation
        JOINT Head
        {
          OFFSET 1.382450 16.113908 0.224293
          CHANNELS 3 Zrotation Xrotation Yrotation
          End Site
          {
            OFFSET 0 0 0
          }
        }
      }
      JOINT ShoulderLeft
      {
        OFFSET -15.636922 -3.280992 -4.484999
        CHANNELS 3 Zrotation Xrotation Yrotation
        JOINT ElbowLeft
        {
          OFFSET -4.411210 -26.621083 -0.848071
          CHANNELS 3 Zrotation Xrotation Yrotation
          JOINT WristLeft
          {
            OFFSET 0.381990 -23.807681 -4.596799
            CHANNELS 3 Zrotation Xrotation Yrotation
            JOINT HandLeft
            {
              OFFSET 0.914034 -4.915583 0.000813
              CHANNELS 3 Zrotation Xrotation Yrotation
              JOINT HandTipLeft
              {
                OFFSET 0.176202 -7.121914 -0.837099
                CHANNELS 3 Zrotation Xrotation Yrotation
                End Site
                {
                  OFFSET 0 0 0
                }
              }
              JOINT ThumbLeft
              {
                OFFSET -2.640676 -0.666267 -1.743352
                CHANNELS 3 Zrotation Xrotation Yrotation
                End Site
                {
                  OFFSET 0 0 0
                }
              }
            }
          }
        }
      }
      JOINT ShoulderRight
      {
        OFFSET 16.013006 -4.039291 1.386621
        CHANNELS 3 Zrotation Xrotation Yrotation
        JOINT ElbowRight
        {
          OFFSET 2.567423 -29.393828 3.262754
          CHANNELS 3 Zrotation Xrotation Yrotation
          JOINT WristRight
          {
            OFFSET 1.234837 -23.839173 -4.058135
            CHANNELS 3 Zrotation Xrotation Yrotation
            JOINT HandRight
            {
              OFFSET -2.126808 -5.710109 -1.399999
              CHANNELS 3 Zrotation Xrotation Yrotation
              JOINT HandTipRight
              {
                OFFSET -0.822618 -6.291732 -1.762059
                CHANNELS 3 Zrotation Xrotation Yrotation
                End Site
                {
                  OFFSET 0 0 0
                }
              }
              JOINT ThumbRight
              {
                OFFSET 2.555551 0.133683 -0.262599
                CHANNELS 3 Zrotation Xrotation Yrotation
                End Site
                {
                  OFFSET 0 0 0
                }
              }
            }
          }
        }
      }
    }
  }
  JOINT HipLeft
  {
    OFFSET -6.684155 0.991171 -4.719063
    CHANNELS 3 Zrotation Xrotation Yrotation
    JOINT KneeLeft
    {
      OFFSET -5.143274 -32.046257 -0.971009
      CHANNELS 3 Zrotation Xrotation Yrotation
      JOINT AnkleLeft
      {
        OFFSET -2.102422 -39.340994 11.060419
        CHANNELS 3 Zrotation Xrotation Yrotation
        JOINT FootLeft
        {
          OFFSET 2.239130 -6.519264 -8.545965
          CHANNELS 3 Zrotation Xrotation Yrotation
          End Site
          {
            OFFSET 0 0 0
          }
        }
      }
    }
  }
  JOINT HipRight
  {
    OFFSET 7.836183 0.777378 -2.606026
    CHANNELS 3 Zrotation Xrotation Yrotation
    JOINT KneeRight
    {
      OFFSET -0.433722 -33.707733 2.625711
      CHANNELS 3 Zrotation Xrotation Yrotation
      JOINT AnkleRight
      {
        OFFSET -3.283281 -39.454105 10.409000
        CHANNELS 3 Zrotation Xrotation Yrotation
        JOINT FootRight
        {
          OFFSET 0.564469 -8.402597 -5.828462
          CHANNELS 3 Zrotation Xrotation Yrotation
          End Site
          {
            OFFSET 0 0 0
          }
        }
      }
    }
  }
}
MOTION
Frames: 13
Frame Time: 0.033333
-55.271238 81.437318 354.660368 0.249437 -0.379252 -10.344973 -0.313491 0.328290 10.346697 -0.000000 0.000000 0.000000 -13.060741 6.073841 0.353218 0.000000 0.000000 0.000000 -2.218593 -0.773958 0.183401 3.266829 -0.856837 -0.442059 -1.958354 8.330892 1.575350 1.011253 -9.178131 -1.270270 0.000000 0.000000 0.000000 0.000000 0.000000 0.000000 -1.559631 0.195401 -0.153616 2.392777 -0.645634 -0.000272 -1.789000 7.922719 -2.272300 -0.508383 -10.284074 3.212148 0.000000 0.000000 0.000000 0.000000 0.000000 0.000000 0.205574 -0.296731 10.448204 -0.397136 0.708780 -0.099194 1.633793 14.163600 2.178941 0.000000 0.000000 0.000000 -1.219067 0.585192 10.282760 1.775810 0.138233 0.276682 6.932194 28.824786 -4.730875 0.000000 0.000000 0.000000
-55.249143 81.447618 354.622697 0.278658 -0.365454 -10.374014 -0.339916 0.309296 10.375820 -0.000000 0.000000 0.000000 -13.078460 5.971905 0.351491 0.000000 0.000000 0.000000 -2.236095 -0.769991 0.183256 3.291410 -0.811917 -0.442894 -1.312716 7.732646 1.413167 0.699373 -8.808756 -1.206116 0.000000 0.000000 0.000000 0.000000 0.000000 0.000000 -1.613709 0.257133 -0.153282 2.440170 -0.755314 0.001186 -1.924807 8.404200 -2.377240 -0.605082 -10.284781 3.314420 0.000000 0.000000 0.000000 0.000000 0.000000 0.000000 0.224848 -0.314774 10.477350 -0.441889 0.716353 -0.098741 0.823544 10.999606 2.330466 0.000000 0.000000 0.000000 -1.308249 0.714969 10.308573 1.833707 -0.085477 0.297521 7.388350 28.532868 -5.136142 0.000000 0.000000 0.000000
-55.230794 81.429289 354.601444 0.296779 -0.377023 -10.450436 -0.360248 0.316932 10.452409 -0.000000 0.000000 0.000000 -13.051673 5.892094 0.347462 0.000000 0.000000 0.000000 -2.216401 -0.707620 0.173662 3.333984 -0.844128 -0.441229 -1.239380 7.427810 1.362361 0.291616 -9.333868 -1.186149 0.000000 0.000000 0.000000 0.000000 0.000000 0.000000 -1.734807 -0.026712 -0.195572 2.692599 -0.062915 0.026848 -2.264809 8.644381 -2.546720 -2.659826 -10.133035 3.650441 0.000000 0.000000 0.000000 0.000000 0.000000 0.000000 0.409567 -0.496921 10.586170 -0.607268 0.941392 -0.127563 0.384065 9.318370 2.411978 0.000000 0.000000 0.000000 -1.367849 0.823042 10.383620 1.824358 -0.234527 0.299041 5.709145 21.267614 -3.994810 0.000000 0.000000 0.000000
-55.197237 81.420391 354.561588 0.319849 -0.376998 -10.563093 -0.383545 0.311968 10.565190 -0.000000 0.000000 0.000000 -12.997797 5.800852 0.341402 0.000000 0.000000 0.000000 -2.200551 -0.655515 0.165647 3.419714 -0.865692 -0.449255 -0.938557 6.920090 1.262617 -0.539162 -9.111393 -1.127582 0.000000 0.000000 0.000000 0.000000 0.000000 0.000000 -1.617714 -0.137295 -0.193724 2.459117 -0.192894 0.029468 -0.689956 9.327938 -3.185448 -3.349932 -6.871777 3.537153 0.000000 0.000000 0.000000 0.000000 0.000000 0.000000 0.371168 -0.483859 10.696177 -0.593961 0.922043 -0.125075 0.412036 9.319247 2.376912 0.000000 0.000000 0.000000 -1.336638 0.959663 10.501564 1.649746 -0.495416 0.282848 3.287102 7.987034 -2.624104 0.000000 0.000000 0.000000
-55.156299 81.427547 354.509047 0.354320 -0.368294 -10.642064 -0.416245 0.296518 10.644280 -0.000000 0.000000 0.000000 -12.959622 5.806802 0.339104 0.000000 0.000000 0.000000 -2.306912 -0.624711 0.163923 3.678709 -0.843125 -0.475724 -0.399387 6.361138 1.151677 -1.130709 -8.575943 -1.056926 0.000000 0.000000 0.000000 0.000000 0.000000 0.000000 -1.356275 -0.847832 -0.234696 1.889260 -0.011350 0.074871 2.785374 11.395145 -4.903537 -7.436546 -9.433920 4.698018 0.000000 0.000000 0.000000 0.000000 0.000000 0.000000 0.283667 -0.370455 10.753686 -0.563216 0.785832 -0.105091 0.892085 11.003642 2.245753 0.000000 0.000000 0.000000 -1.259230 1.063985 10.589059 0.687684 -0.909202 0.070686 1.989887 0.254248 -1.364004 0.000000 0.000000 0.000000
-55.116933 81.455905 354.443498 0.367377 -0.346164 -10.612398 -0.424848 0.272578 10.614519 -0.000000 0.000000 0.000000 -12.848885 5.808568 0.332005 0.000000 0.000000 0.000000 -2.482355 -0.590124 0.163533 3.869634 -0.855886 -0.477746 0.766650 5.433901 0.921377 -2.636080 -6.858786 -0.886441 0.000000 0.000000 0.000000 0.000000 0.000000 0.000000 -1.275932 0.582763 -0.084374 -0.658680 -7.666591 -0.080145 3.193350 11.041989 -2.048179 -2.106865 -3.554090 1.878190 0.000000 0.000000 0.000000 0.000000 0.000000 0.000000 -0.424848 0.272578 10.614519 -0.000000 0.000000 0.000000 1.774089 14.164997 2.006190 0.000000 0.000000 0.000000 -1.097776 1.115879 10.570967 0.506874 -0.952374 0.055918 -0.460177 -4.806413 -0.023886 0.000000 0.000000 0.000000
-55.065885 81.512743 354.361632 0.359368 -0.320723 -10.461182 -0.411632 0.250135 10.463086 -0.000000 0.000000 0.000000 -12.719635 5.834567 0.324323 0.000000 0.000000 0.000000 -2.397728 -0.455068 0.141805 3.393359 -0.977278 -0.372247 3.360925 3.909198 0.484219 -5.140869 -5.042854 -0.580698 0.000000 0.000000 0.000000 0.000000 0.000000 0.000000 -1.722913 3.814477 0.200422 1.726823 -13.296563 -0.587740 4.787677 13.634698 -3.214754 0.082743 -4.046365 1.579864 0.000000 0.000000 0.000000 0.000000 0.000000 0.000000 -0.411632 0.250135 10.463086 -0.965517 -0.091024 -0.267176 3.840999 18.524627 1.924364 0.000000 0.000000 0.000000 -0.942519 1.180674 10.429177 0.353732 -1.011227 0.043660 -3.273154 -4.994032 1.851982 0.000000 0.000000 0.000000
-55.024357 81.591757 354.272539 0.315367 -0.254391 -10.260769 -0.355640 0.194142 10.262072 -0.000000 0.000000 0.000000 -12.728344 5.583011 0.318471 0.000000 0.000000 0.000000 -2.280104 -0.354789 0.123980 2.779567 -1.043057 -0.254507 6.564256 3.592333 0.224564 -8.165341 -3.935989 -0.516178 0.000000 0.000000 0.000000 0.000000 0.000000 0.000000 -1.682218 9.030315 0.743970 4.512342 -16.586323 -0.724836 7.467902 12.181118 -5.093878 1.328529 -5.922917 2.025143 0.000000 0.000000 0.000000 0.000000 0.000000 0.000000 -0.355640 0.194142 10.262072 -1.126748 -0.073564 -0.313357 5.389636 23.374112 1.450864 0.000000 0.000000 0.000000 -0.749338 1.085686 10.236458 0.229032 -0.947299 0.031904 -5.566935 0.793303 3.948778 0.000000 0.000000 0.000000
-54.995265 81.675554 354.176929 0.205233 -0.189868 -10.039657 -0.235191 0.151181 10.040307 -0.000000 0.000000 0.000000 -12.380811 5.544722 0.295865 0.000000 0.000000 0.000000 -2.150688 -0.248102 0.104659 2.113285 -1.237015 -0.131289 8.697922 4.924752 0.170753 -10.442266 -5.710488 -0.890893 0.000000 0.000000 0.000000 0.000000 0.000000 0.000000 -2.167943 14.011148 1.275160 10.454992 -15.119328 -0.081698 7.912408 5.188749 -5.086923 1.795264 -6.031718 2.048502 0.000000 0.000000 0.000000 0.000000 0.000000 0.000000 -0.235191 0.151181 10.040307 -1.476851 -0.017579 -0.414211 6.472344 25.617619 1.167381 0.000000 0.000000 0.000000 -0.474832 0.959664 10.024439 0.095267 -0.837850 0.018888 -8.706894 1.146467 6.198110 0.000000 0.000000 0.000000
-54.953055 81.744825 354.054416 0.044359 -0.074628 -9.882897 -0.056510 0.065907 9.882958 -0.000000 0.000000 0.000000 -12.405454 5.214102 0.289901 0.000000 0.000000 0.000000 -2.212777 -0.203503 0.099978 1.576003 -1.336846 -0.016044 10.271838 6.442401 0.134854 -11.854778 -6.966211 -1.349338 0.000000 0.000000 0.000000 0.000000 0.000000 0.000000 -2.860642 19.307442 1.911756 17.690900 -10.298206 0.867018 5.342784 -9.791191 -0.440007 3.438070 -1.877102 -1.221995 0.000000 0.000000 0.000000 0.000000 0.000000 0.000000 -0.056510 0.065907 9.882958 -1.636697 -0.054458 -0.457631 5.898298 23.315531 1.522577 0.000000 0.000000 0.000000 -0.056510 0.065907 9.882958 -0.000000 0.000000 0.000000 -10.964224 1.262730 7.813161 0.000000 0.000000 0.000000
-54.991632 81.809672 354.032208 0.062946 0.079285 -10.219214 -0.047881 -0.089195 10.219133 -0.000000 0.000000 0.000000 -11.394877 5.034377 0.227451 0.000000 0.000000 0.000000 -2.032235 0.012561 0.062705 1.361656 -1.650908 0.031164 8.372543 7.787130 0.395583 -9.078180 -7.143379 -1.582510 0.000000 0.000000 0.000000 0.000000 0.000000 0.000000 -3.375982 22.640666 2.363156 25.871914 0.898468 0.648091 2.563189 -24.230864 2.976300 3.530596 -1.060102 -1.782591 0.000000 0.000000 0.000000 0.000000 0.000000 0.000000 -0.047881 -0.089195 10.219133 -1.627873 -0.123108 -0.452382 4.284654 18.758581 2.351527 0.000000 0.000000 0.000000 -0.047881 -0.089195 10.219133 -0.000000 0.000000 0.000000 -12.092421 1.280282 8.619035 0.000000 0.000000 0.000000
-55.130188 81.857993 354.139481 0.290358 0.222832 -10.797669 -0.243475 -0.273280 10.796524 -0.000000 0.000000 0.000000 -9.851027 5.070206 0.138310 0.000000 0.000000 0.000000 -1.777965 0.278904 0.014719 1.374482 -1.968798 0.036894 4.691179 7.175135 0.628967 -5.179382 -6.057687 -1.228226 0.000000 0.000000 0.000000 0.000000 0.000000 0.000000 -3.493289 23.354475 2.465719 33.707289 18.075848 -2.787595 1.330851 -37.368920 4.783502 3.196581 -4.756562 1.328353 0.000000 0.000000 0.000000 0.000000 0.000000 0.000000 -0.243475 -0.273280 10.796524 -1.435728 -0.252602 -0.392823 2.994195 14.842615 2.646814 0.000000 0.000000 0.000000 -0.243475 -0.273280 10.796524 -0.000000 0.000000 0.000000 -11.991854 0.979624 8.511268 0.000000 0.000000 0.000000
-55.368705 81.898646 354.353424 0.594379 0.297600 -11.750708 -0.521329 -0.412395 11.747289 -0.000000 0.000000 0.000000 -8.045579 5.168645 0.031968 0.000000 0.000000 0.000000 -1.307740 0.632972 -0.055885 1.416319 -2.353864 0.024944 0.451776 7.521555 1.082995 -0.978920 -6.904584 -1.140681 0.000000 0.000000 0.000000 0.000000 0.000000 0.000000 -3.336763 21.239626 2.182796 44.143072 35.423295 -10.809685 4.461092 -43.589082 5.575716 -1.628348 -13.568400 9.230627 0.000000 0.000000 0.000000 0.000000 0.000000 0.000000 0.256232 -0.746317 11.812094 -1.775745 0.042120 -0.329166 2.010300 12.021137 2.559134 0.000000 0.000000 0.000000 -0.521329 -0.412395 11.747289 -0.000000 0.000000 0.000000 -10.347211 0.613968 7.301152 0.000000 0.000000 0.000000
